# xmcd
#
# Track frame offsets:
#  150
#  16935
#  39816
#  63057
#  97770
#  116523
#  132012
#  148941
#
# Disc length: 2204 seconds
#
# Revision: 0
# Processed by: cddbd v1.5.1PL2 Copyright (c) Steve Scherf et al.
# Submitted via: Collectorz.com_Music_Collector 6.9
#
DISCID=59089a08
DTITLE=Tony Jaggers - Chasing Rainbows
DYEAR=2005
DGENRE=Blues
TTITLE0=Slow Boat To Memphis
TTITLE1=Dead Flowers
TTITLE2=Chasing Rainbows
TTITLE3=Far From Home
TTITLE4=3 Soapies
TTITLE5=Walkin' To Jerusalem
TTITLE6=Lonely Town
TTITLE7=I Wonder Why
EXTD=
EXTT0=
EXTT1=
EXTT2=
EXTT3=
EXTT4=
EXTT5=
EXTT6=
EXTT7=
PLAYORDER=
